<svg width="28" height="28" viewBox="0 0 28 28" fill="none" xmlns="http://www.w3.org/2000/svg">
<path d="M0.5 14C0.5 6.54416 6.54416 0.5 14 0.5C21.4558 0.5 27.5 6.54416 27.5 14C27.5 21.4558 21.4558 27.5 14 27.5C6.54416 27.5 0.5 21.4558 0.5 14Z" fill="black" stroke="black"/>
<path d="M7.94531 20.7344C7.53125 20.3594 7.42188 20.0312 7.61719 19.75L8.22656 18.8711C8.4375 18.5664 8.77734 18.5898 9.24609 18.9414C9.86328 19.4023 10.5039 19.7812 11.168 20.0781C11.8398 20.375 12.6523 20.5234 13.6055 20.5234C14.3086 20.5234 14.9023 20.418 15.3867 20.207C15.8711 19.9961 16.2578 19.6953 16.5469 19.3047C16.8438 18.9062 16.9922 18.4258 16.9922 17.8633C16.9922 17.457 16.9297 17.082 16.8047 16.7383C16.6875 16.3867 16.4961 16.0938 16.2305 15.8594C15.9648 15.625 15.6875 15.4414 15.3984 15.3086C14.9219 15.0898 14.207 14.8359 13.2539 14.5469C12.3086 14.2578 11.4805 13.9453 10.7695 13.6094C10.0664 13.2734 9.50391 12.8672 9.08203 12.3906C8.66797 11.9141 8.39062 11.4258 8.25 10.9258C8.11719 10.418 8.05078 9.83984 8.05078 9.19141C8.05078 8.19922 8.33984 7.34375 8.91797 6.625C9.49609 5.90625 10.2031 5.42969 11.0391 5.19531C11.8828 4.96094 12.7383 4.84375 13.6055 4.84375C14.5977 4.84375 15.4609 4.97266 16.1953 5.23047C16.9297 5.48828 17.5859 5.82422 18.1641 6.23828C18.5703 6.52734 18.6641 6.83203 18.4453 7.15234L17.8477 8.00781C17.668 8.26562 17.3164 8.21094 16.793 7.84375C16.3945 7.5625 15.9062 7.30078 15.3281 7.05859C14.7578 6.80859 14.1914 6.68359 13.6289 6.68359C12.9102 6.68359 12.3125 6.76953 11.8359 6.94141C11.3594 7.10547 10.9844 7.38672 10.7109 7.78516C10.4375 8.18359 10.3008 8.64453 10.3008 9.16797C10.3008 9.49609 10.332 9.80078 10.3945 10.082C10.457 10.3555 10.6172 10.6367 10.875 10.9258C11.1328 11.2148 11.4453 11.4375 11.8125 11.5938C12.3047 11.8047 13.0664 12.0547 14.0977 12.3438C15.1367 12.625 16.043 12.9727 16.8164 13.3867C17.5352 13.7695 18.0508 14.1719 18.3633 14.5938C18.6836 15.0078 18.9297 15.4609 19.1016 15.9531C19.2812 16.4375 19.3711 16.9844 19.3711 17.5938C19.3711 18.7031 19.0859 19.6289 18.5156 20.3711C17.9453 21.1133 17.2695 21.6289 16.4883 21.918C15.707 22.207 14.7266 22.3516 13.5469 22.3516C12.1328 22.3516 10.9609 22.1875 10.0312 21.8594C9.10156 21.5312 8.40625 21.1562 7.94531 20.7344Z" fill="white"/>
</svg>
