<svg width="170" height="170" viewBox="0 0 170 170" fill="none" xmlns="http://www.w3.org/2000/svg">
<circle cx="85" cy="85" r="84.5" fill="#32FFAA" stroke="#0A0911"/>
<path d="M30.3303 74.8007L16.8416 74.4824L17.345 72.8859L27.9876 73.2221L19.0832 67.4038L19.5807 65.796L30.2233 66.1322L21.3103 60.3113L21.8164 58.7062L33.0478 66.183L32.566 67.7108L21.9984 67.4361L30.8121 73.2729L30.3303 74.8007Z" fill="#0A0911"/>
<path d="M39.8067 54.596C39.3698 55.1758 38.8978 55.5828 38.3909 55.8168C37.8828 56.0424 37.378 56.1241 36.8765 56.0617C36.3787 55.9946 35.9213 55.8039 35.5044 55.4898C35.0971 55.1828 34.8027 54.8407 34.6212 54.4635C34.4385 54.0779 34.3554 53.6697 34.372 53.239C34.3838 52.8046 34.4802 52.3476 34.6613 51.868C34.8388 51.4232 35.0631 50.9461 35.3342 50.4368C35.6042 49.919 35.885 49.4018 36.1766 48.8853C36.4682 48.3688 36.7387 47.8852 36.9881 47.4345L36.9074 48.095C36.2282 47.5606 35.6132 47.315 35.0623 47.3581C34.515 47.3965 33.9741 47.7702 33.4397 48.4794C33.0858 48.949 32.8831 49.4423 32.8315 49.9594C32.7788 50.4681 32.9378 50.9749 33.3086 51.4797L32.0267 52.4182C31.4871 51.7185 31.2254 50.9541 31.2417 50.125C31.258 49.2958 31.5966 48.4428 32.2574 47.5659C32.7882 46.8615 33.3702 46.3534 34.0033 46.0417C34.6353 45.7215 35.2882 45.6426 35.9623 45.805C36.2849 45.8753 36.5984 46.0026 36.9028 46.1869C37.2024 46.3676 37.5055 46.5735 37.8122 46.8046L42.6135 50.4229L41.7577 51.5585L39.8961 50.1556L40.269 50.0197C40.6764 50.785 40.8421 51.5522 40.7659 52.3212C40.6934 53.0855 40.3736 53.8437 39.8067 54.596ZM38.882 53.5949C39.2286 53.1349 39.4469 52.6758 39.5368 52.2176C39.6254 51.751 39.6132 51.3136 39.5002 50.9053C39.3823 50.4934 39.1863 50.1354 38.9122 49.8312C38.7268 49.5787 38.4898 49.34 38.2011 49.1149C37.9112 48.8815 37.6872 48.7052 37.5291 48.586L38.059 48.2866C37.8023 48.7468 37.5487 49.198 37.2981 49.6403C37.0474 50.0825 36.8179 50.5068 36.6093 50.9131C36.396 51.3158 36.2218 51.6916 36.0866 52.0405C35.9948 52.3019 35.9311 52.5657 35.8957 52.8321C35.8639 53.0936 35.8886 53.345 35.9696 53.5864C36.0495 53.8194 36.2116 54.028 36.456 54.2121C36.6668 54.371 36.9078 54.47 37.1789 54.509C37.4536 54.5432 37.7357 54.4929 38.0252 54.3579C38.3184 54.2182 38.6039 53.9639 38.882 53.5949Z" fill="#0A0911"/>
<path d="M52.4105 41.4938C52.0307 41.9416 51.6126 42.3317 51.1563 42.664C50.7084 42.9972 50.2495 43.2204 49.7797 43.3334C49.3062 43.4417 48.8439 43.3954 48.3928 43.1945C48.0035 43.0135 47.6804 42.776 47.4236 42.482C47.1677 42.1796 46.8847 41.8335 46.5747 41.4437L41.1291 34.5974L42.3828 33.6001L47.7837 40.3901C48.0302 40.7 48.2435 40.9635 48.4238 41.1804C48.6087 41.3937 48.8093 41.5446 49.0255 41.6333C49.4336 41.7994 49.8413 41.7626 50.2487 41.5229C50.6607 41.2795 51.0956 40.9106 51.5533 40.4162L52.4105 41.4938ZM42.0909 38.9728L41.2673 37.9374L46.3598 33.8868L47.1834 34.9222L42.0909 38.9728Z" fill="#0A0911"/>
<path d="M62.3234 36.1664C61.4245 36.5667 60.5708 36.707 59.7623 36.5875C58.9568 36.4601 58.2323 36.1161 57.5886 35.5554C56.9449 34.9947 56.4162 34.2646 56.0026 33.3651C55.6012 32.4339 55.4114 31.543 55.4334 30.6926C55.4585 29.8342 55.6983 29.0673 56.1529 28.392C56.6076 27.7168 57.2789 27.1814 58.1669 26.7861C59.1042 26.3688 60.0124 26.2403 60.8916 26.4005C61.7763 26.5584 62.5119 26.9862 63.0984 27.6839L61.8453 28.764C61.4296 28.3317 60.9472 28.067 60.3982 27.9699C59.8548 27.8703 59.3117 27.9413 58.769 28.1829C58.1606 28.4538 57.7225 28.8196 57.4548 29.2804C57.1846 29.7356 57.0646 30.2553 57.0948 30.8395C57.1226 31.4183 57.2765 32.0295 57.5566 32.6733C58.0068 33.655 58.5893 34.3513 59.3042 34.762C60.0221 35.1649 60.8223 35.1698 61.7048 34.7769C62.2858 34.5183 62.7096 34.172 62.9762 33.738C63.2403 33.2986 63.3587 32.7828 63.3315 32.1907L64.9835 31.9182C65.0451 32.8826 64.8473 33.7292 64.3903 34.4581C63.9332 35.187 63.2443 35.7565 62.3234 36.1664Z" fill="#0A0911"/>
<path d="M79.9312 31.2074L79.2535 26.3858C79.1892 25.9283 79.0859 25.4945 78.9434 25.0843C78.8069 24.6733 78.6142 24.3156 78.3654 24.0113C78.1218 23.7002 77.8168 23.4704 77.4506 23.3219C77.0903 23.1726 76.6547 23.1338 76.1437 23.2056C75.7456 23.2616 75.3928 23.3809 75.0852 23.5634C74.7827 23.7392 74.5348 23.9801 74.3415 24.286C74.1482 24.5919 74.0154 24.9619 73.9431 25.3962C73.876 25.8237 73.8816 26.3167 73.9601 26.8752L72.8723 26.7009C72.7412 25.7681 72.7953 24.9456 73.0345 24.2334C73.2788 23.5144 73.6789 22.934 74.2349 22.4924C74.7959 22.0439 75.4894 21.7617 76.3153 21.6456C76.9391 21.5579 77.4847 21.5812 77.9519 21.7155C78.4191 21.8498 78.8213 22.0599 79.1584 22.3457C79.4946 22.6257 79.7743 22.956 79.9974 23.3366C80.2197 23.7113 80.3928 24.102 80.5166 24.5088C80.6455 24.9087 80.7359 25.2929 80.7876 25.6613L81.5354 30.982L79.9312 31.2074ZM73.0686 32.1719L71.265 19.338L72.6909 19.1376L73.6867 26.2229L73.8649 26.1979L74.6728 31.9464L73.0686 32.1719Z" fill="#0A0911"/>
<path d="M100.32 33.1471L100.08 19.4825L101.668 19.9831L101.879 31.855L108.895 22.2618L110.483 22.7625L102.449 33.8182L100.32 33.1471Z" fill="#0A0911"/>
<path d="M118.762 28.6555L119.615 27.236L120.988 28.0611L120.135 29.4805L118.762 28.6555ZM112.871 38.4607L117.877 30.129L119.25 30.954L114.244 39.2858L112.871 38.4607Z" fill="#0A0911"/>
<path d="M123.309 46.5966C122.657 45.9672 122.254 45.2656 122.101 44.4918C121.951 43.7136 122.018 42.9232 122.301 42.1205C122.588 41.322 123.07 40.5732 123.745 39.874C124.42 39.1747 125.152 38.6676 125.94 38.3526C126.732 38.0417 127.515 37.9516 128.29 38.0824C129.069 38.2088 129.782 38.5846 130.429 39.2098C131.09 39.8474 131.49 40.5427 131.63 41.2956C131.771 42.0484 131.687 42.8137 131.378 43.5913C131.073 44.3732 130.581 45.1159 129.902 45.8194C129.231 46.5143 128.508 47.0298 127.733 47.3658C126.967 47.7017 126.201 47.8169 125.435 47.7115C124.673 47.6017 123.965 47.2301 123.309 46.5966ZM124.47 45.6788C124.941 46.1331 125.435 46.3939 125.954 46.4612C126.477 46.5242 127.002 46.426 127.527 46.1664C128.062 45.9067 128.575 45.5222 129.067 45.0129C129.567 44.495 129.933 43.9688 130.166 43.4343C130.407 42.8997 130.485 42.3785 130.399 41.8708C130.318 41.3588 130.049 40.8819 129.591 40.4401C129.117 39.9816 128.611 39.7189 128.076 39.6519C127.544 39.589 127.011 39.6832 126.477 39.9344C125.946 40.1898 125.444 40.5635 124.969 41.0555C124.489 41.5519 124.131 42.0737 123.895 42.621C123.662 43.1639 123.585 43.6978 123.662 44.2227C123.743 44.7516 124.013 45.237 124.47 45.6788ZM125.684 48.5155L130.655 43.3685L130.525 43.2434L134.558 39.0676L135.716 40.1867L126.714 49.5095L125.684 48.5155Z" fill="#0A0911"/>
<path d="M133.114 59.0453C132.637 58.2191 132.402 57.3918 132.409 56.5635C132.424 55.7374 132.66 54.9638 133.116 54.2428C133.578 53.5189 134.248 52.9034 135.126 52.3964C136.046 51.8653 136.939 51.5752 137.804 51.5259C138.674 51.4737 139.466 51.6439 140.177 52.0366C140.897 52.4315 141.493 53.0369 141.964 53.8527C142.453 54.6996 142.673 55.5318 142.626 56.3492C142.581 57.1717 142.283 57.9396 141.732 58.6528C141.184 59.3712 140.399 59.9976 139.377 60.5321L138.567 59.1291L139.066 58.8411C140.091 58.2285 140.741 57.5725 141.016 56.8732C141.297 56.1709 141.206 55.4197 140.744 54.6195C140.249 53.7621 139.597 53.269 138.788 53.1402C137.979 53.0113 137.06 53.2439 136.032 53.838C135.039 54.411 134.399 55.0784 134.112 55.8403C133.824 56.6022 133.919 57.3962 134.396 58.2224C134.717 58.7784 135.123 59.1881 135.615 59.4516C136.106 59.7151 136.659 59.8257 137.272 59.7835L137.581 61.3818C136.649 61.4835 135.788 61.3229 134.996 60.9C134.213 60.4793 133.586 59.8611 133.114 59.0453ZM135.372 53.5953L136.486 52.9518L140.078 59.1715L138.963 59.815L135.372 53.5953Z" fill="#0A0911"/>
<path d="M138.894 73.3025C138.661 72.3652 138.671 71.503 138.926 70.7159C139.183 69.9346 139.641 69.267 140.301 68.7129C140.96 68.1589 141.776 67.7606 142.748 67.5182C143.738 67.2714 144.652 67.2414 145.49 67.4281C146.328 67.6149 147.039 67.9973 147.622 68.5754C148.211 69.152 148.62 69.9002 148.849 70.8201C149.085 71.7632 149.075 72.6283 148.82 73.4154C148.57 74.2011 148.115 74.868 147.454 75.4163C146.8 75.9689 145.987 76.3664 145.015 76.6088C144.031 76.8541 143.118 76.8871 142.276 76.7076C141.439 76.5266 140.723 76.1486 140.128 75.5734C139.539 74.9968 139.128 74.2398 138.894 73.3025ZM140.37 72.9345C140.614 73.9126 141.121 74.559 141.893 74.8738C142.664 75.1886 143.567 75.2168 144.604 74.9583C145.669 74.6927 146.456 74.2399 146.964 73.5999C147.478 72.9584 147.615 72.1545 147.374 71.1881C147.21 70.5302 146.926 70.0258 146.523 69.6749C146.12 69.3239 145.631 69.109 145.055 69.0301C144.478 68.9511 143.847 68.9973 143.16 69.1686C142.1 69.4329 141.311 69.8893 140.793 70.538C140.274 71.1868 140.133 71.9856 140.37 72.9345Z" fill="#0A0911"/>
<path d="M139.617 94.6412L153.106 94.9595L152.602 96.556L141.96 96.2198L150.864 102.038L150.367 103.646L139.724 103.31L148.637 109.131L148.131 110.736L136.899 103.259L137.381 101.731L147.949 102.006L139.135 96.169L139.617 94.6412Z" fill="#0A0911"/>
<path d="M130.141 114.846C130.578 114.266 131.049 113.859 131.556 113.625C132.064 113.399 132.569 113.318 133.071 113.38C133.569 113.447 134.026 113.638 134.443 113.952C134.85 114.259 135.145 114.601 135.326 114.978C135.509 115.364 135.592 115.772 135.575 116.203C135.563 116.637 135.467 117.094 135.286 117.574C135.109 118.019 134.884 118.496 134.613 119.005C134.343 119.523 134.062 120.04 133.771 120.557C133.479 121.073 133.209 121.557 132.959 122.007L133.04 121.347C133.719 121.881 134.334 122.127 134.885 122.084C135.432 122.045 135.973 121.672 136.508 120.962C136.861 120.493 137.064 120 137.116 119.482C137.169 118.974 137.009 118.467 136.639 117.962L137.921 117.024C138.46 117.723 138.722 118.488 138.706 119.317C138.689 120.146 138.351 120.999 137.69 121.876C137.159 122.58 136.577 123.088 135.944 123.4C135.312 123.72 134.659 123.799 133.985 123.637C133.662 123.567 133.349 123.439 133.044 123.255C132.745 123.074 132.442 122.868 132.135 122.637L127.334 119.019L128.19 117.883L130.051 119.286L129.678 119.422C129.271 118.657 129.105 117.89 129.181 117.121C129.254 116.356 129.574 115.598 130.141 114.846ZM131.065 115.847C130.719 116.307 130.5 116.766 130.411 117.224C130.322 117.691 130.334 118.128 130.447 118.537C130.565 118.948 130.761 119.306 131.035 119.611C131.22 119.863 131.458 120.102 131.746 120.327C132.036 120.56 132.26 120.737 132.418 120.856L131.888 121.155C132.145 120.695 132.399 120.244 132.649 119.802C132.9 119.359 133.129 118.935 133.338 118.529C133.551 118.126 133.726 117.75 133.861 117.401C133.953 117.14 134.016 116.876 134.052 116.61C134.083 116.348 134.059 116.097 133.978 115.855C133.898 115.622 133.736 115.414 133.491 115.23C133.28 115.071 133.039 114.972 132.768 114.933C132.494 114.899 132.212 114.949 131.922 115.084C131.629 115.224 131.343 115.478 131.065 115.847Z" fill="#0A0911"/>
<path d="M117.537 127.948C117.917 127.5 118.335 127.11 118.791 126.778C119.239 126.445 119.698 126.222 120.168 126.109C120.641 126 121.103 126.047 121.554 126.247C121.944 126.428 122.267 126.666 122.524 126.96C122.78 127.262 123.063 127.608 123.373 127.998L128.818 134.845L127.564 135.842L122.164 129.052C121.917 128.742 121.704 128.478 121.523 128.261C121.339 128.048 121.138 127.897 120.922 127.809C120.514 127.643 120.106 127.679 119.699 127.919C119.287 128.162 118.852 128.531 118.394 129.026L117.537 127.948ZM127.856 130.469L128.68 131.505L123.587 135.555L122.764 134.52L127.856 130.469Z" fill="#0A0911"/>
<path d="M107.622 133.275C108.521 132.875 109.375 132.735 110.183 132.854C110.988 132.982 111.713 133.326 112.357 133.887C113 134.447 113.529 135.177 113.943 136.077C114.344 137.008 114.534 137.899 114.512 138.749C114.487 139.608 114.247 140.375 113.792 141.05C113.338 141.725 112.666 142.26 111.778 142.656C110.841 143.073 109.933 143.202 109.054 143.041C108.169 142.884 107.433 142.456 106.847 141.758L108.1 140.678C108.516 141.11 108.998 141.375 109.547 141.472C110.091 141.572 110.634 141.501 111.176 141.259C111.785 140.988 112.223 140.622 112.491 140.162C112.761 139.706 112.881 139.187 112.85 138.602C112.823 138.024 112.669 137.412 112.389 136.769C111.939 135.787 111.356 135.091 110.641 134.68C109.923 134.277 109.123 134.272 108.241 134.665C107.659 134.924 107.236 135.27 106.969 135.704C106.705 136.143 106.587 136.659 106.614 137.251L104.962 137.524C104.9 136.559 105.098 135.713 105.555 134.984C106.012 134.255 106.701 133.685 107.622 133.275Z" fill="#0A0911"/>
<path d="M90.0161 138.234L90.6937 143.056C90.758 143.514 90.8614 143.947 91.0039 144.358C91.1404 144.769 91.3331 145.126 91.5818 145.431C91.8255 145.742 92.1304 145.972 92.4967 146.12C92.857 146.269 93.2926 146.308 93.8036 146.236C94.2017 146.18 94.5545 146.061 94.8621 145.878C95.1646 145.703 95.4124 145.462 95.6058 145.156C95.7991 144.85 95.9319 144.48 96.0041 144.046C96.0713 143.618 96.0656 143.125 95.9871 142.567L97.075 142.741C97.2061 143.674 97.152 144.496 96.9128 145.209C96.6685 145.928 96.2684 146.508 95.7124 146.95C95.1514 147.398 94.4579 147.68 93.632 147.796C93.0081 147.884 92.4626 147.861 91.9954 147.726C91.5281 147.592 91.126 147.382 90.7889 147.096C90.4527 146.816 90.173 146.486 89.9498 146.105C89.7275 145.731 89.5545 145.34 89.4307 144.933C89.3017 144.533 89.2114 144.149 89.1596 143.781L88.4119 138.46L90.0161 138.234ZM96.8787 137.27L98.6823 150.104L97.2563 150.304L96.2606 143.219L96.0823 143.244L95.2744 137.495L96.8787 137.27Z" fill="#0A0911"/>
<path d="M69.6269 136.295L69.8671 149.959L68.2792 149.459L68.0682 137.587L61.0519 147.18L59.4639 146.679L67.4982 135.624L69.6269 136.295Z" fill="#0A0911"/>
<path d="M51.1871 140.786L50.3342 142.206L48.961 141.381L49.8139 139.961L51.1871 140.786ZM57.0785 130.981L52.0725 139.313L50.6993 138.488L55.7053 130.156L57.0785 130.981Z" fill="#0A0911"/>
<path d="M46.6406 122.845C47.2923 123.475 47.695 124.176 47.8485 124.95C47.9979 125.728 47.9311 126.519 47.6481 127.321C47.3608 128.12 46.8795 128.869 46.2043 129.568C45.5291 130.267 44.7975 130.774 44.0096 131.089C43.2172 131.4 42.4338 131.49 41.6592 131.36C40.8805 131.233 40.1674 130.857 39.52 130.232C38.8597 129.594 38.4592 128.899 38.3188 128.146C38.1783 127.394 38.2626 126.628 38.5715 125.851C38.876 125.069 39.368 124.326 40.0474 123.623C40.7184 122.928 41.4414 122.412 42.2163 122.076C42.9827 121.74 43.7487 121.625 44.5143 121.73C45.2758 121.84 45.9845 122.212 46.6406 122.845ZM45.4791 123.763C45.0087 123.309 44.514 123.048 43.9951 122.981C43.4721 122.918 42.9477 123.016 42.4218 123.276C41.8874 123.535 41.3744 123.92 40.8825 124.429C40.3824 124.947 40.0161 125.473 39.7835 126.008C39.5425 126.542 39.4646 127.063 39.5499 127.571C39.631 128.083 39.9003 128.56 40.3578 129.002C40.8326 129.46 41.3379 129.723 41.8737 129.79C42.4052 129.853 42.9382 129.759 43.4727 129.508C44.0029 129.252 44.5056 128.878 44.9807 128.386C45.46 127.89 45.8179 127.368 46.0545 126.821C46.2869 126.278 46.3645 125.744 46.2875 125.219C46.2061 124.69 45.9366 124.205 45.4791 123.763ZM44.2648 120.926L39.2946 126.073L39.4241 126.198L35.3917 130.374L34.2328 129.255L43.2354 119.932L44.2648 120.926Z" fill="#0A0911"/>
<path d="M36.8328 110.397C37.3098 111.223 37.545 112.05 37.5382 112.878C37.5233 113.705 37.2875 114.478 36.8308 115.199C36.369 115.923 35.6989 116.538 34.8208 117.046C33.9011 117.577 33.0086 117.867 32.1433 117.916C31.2728 117.968 30.4817 117.798 29.7699 117.405C29.05 117.01 28.4545 116.405 27.9835 115.589C27.4945 114.742 27.2738 113.91 27.3215 113.093C27.3662 112.27 27.6641 111.502 28.2154 110.789C28.7636 110.071 29.5486 109.444 30.5702 108.91L31.3803 110.313L30.8814 110.601C29.8564 111.213 29.2063 111.869 28.9311 112.569C28.6507 113.271 28.7415 114.022 29.2035 114.822C29.6986 115.68 30.3505 116.173 31.1593 116.302C31.9681 116.431 32.8869 116.198 33.9157 115.604C34.9082 115.031 35.5482 114.363 35.8357 113.602C36.1233 112.84 36.0286 112.046 35.5516 111.22C35.2306 110.664 34.8242 110.254 34.3326 109.99C33.841 109.727 33.2887 109.616 32.6756 109.658L32.3659 108.06C33.298 107.958 34.1598 108.119 34.9513 108.542C35.7346 108.963 36.3617 109.581 36.8328 110.397ZM34.5754 115.847L33.4609 116.49L29.8697 110.27L30.9842 109.627L34.5754 115.847Z" fill="#0A0911"/>
<path d="M31.053 96.1394C31.2867 97.0767 31.276 97.9389 31.0209 98.726C30.7643 99.5073 30.3062 100.175 29.6467 100.729C28.9871 101.283 28.1713 101.681 27.199 101.924C26.2093 102.171 25.2954 102.201 24.4574 102.014C23.6193 101.827 22.9086 101.445 22.3254 100.866C21.7364 100.29 21.3272 99.5417 21.0978 98.6218C20.8627 97.6787 20.8726 96.8136 21.1278 96.0265C21.3771 95.2408 21.8322 94.5739 22.4932 94.0256C23.1469 93.473 23.9599 93.0755 24.9321 92.8331C25.916 92.5877 26.8292 92.5548 27.6716 92.7343C28.5083 92.9153 29.224 93.2933 29.8189 93.8685C30.4079 94.4451 30.8193 95.2021 31.053 96.1394ZM29.5772 96.5074C29.3333 95.5293 28.8258 94.8829 28.0547 94.5681C27.2836 94.2533 26.38 94.2251 25.3437 94.4835C24.2783 94.7492 23.4915 95.202 22.9833 95.842C22.4692 96.4835 22.3327 97.2874 22.5736 98.2538C22.7377 98.9117 23.0212 99.4161 23.424 99.767C23.8269 100.118 24.3165 100.333 24.8927 100.412C25.4689 100.491 26.1005 100.445 26.7875 100.273C27.847 100.009 28.636 99.5526 29.1545 98.9039C29.6729 98.2551 29.8138 97.4563 29.5772 96.5074Z" fill="#0A0911"/>
<path d="M101 85L77 98.8564V71.1436L101 85Z" fill="#0A0911"/>
</svg>
